<?xml version="1.0" encoding="utf-8"?>
<!-- Uploaded to: SVG Repo, www.svgrepo.com, Generator: SVG Repo Mixer Tools -->
<svg width="800px" height="800px" viewBox="0 0 1024 1024" class="icon"  version="1.1" xmlns="http://www.w3.org/2000/svg"><path d="M1023.944003 511.972002c0 282.792535-229.235464 512.027998-511.948003 512.027998C229.235464 1024 0 794.764536 0 511.972002 0 229.243463 229.235464 0.008 511.996 0.008 794.708539 0.008 1023.944003 229.243463 1023.944003 511.972002z" fill="#0092D2" /><path d="M1023.944003 512.035998C1023.944003 229.243463 794.708539 0.008 511.996 0.008 229.235464 0.008 0 229.243463 0 512.035998" fill="#38AFE0" /><path d="M511.996 1024C229.235464 1024 0 794.764536 0 511.972002 0 229.243463 229.235464 0.008 511.996 0.008" fill="#36B3DD" /><path d="M511.964002 1024c-103.13836 0-186.709789-229.235464-186.709789-512.027998 0-282.728538 83.57143-511.964002 186.709789-511.964002 103.090362 0 186.725788 229.235464 186.725788 511.964002 0 282.792535-83.635426 512.027998-186.725788 512.027998z" fill="#2AA8D8" /><path d="M0 512.004v0.031998h511.996V0.008a510.340091 510.340091 0 0 0-199.285101 40.245799C128.952948 117.961549 0 299.927598 0 512.004z" fill="#3FC6EA" /><path d="M698.68979 511.972002c0-282.728538-83.635426-511.964002-186.725788-511.964002h-0.031998C408.825642 0.039998 325.254213 229.243463 325.254213 511.972002v0.063996h373.435577v-0.063996z" fill="#42B8E4" /></svg>